<?xml version="1.0" encoding="utf-8"?>
<!-- Generator: Adobe Illustrator 16.0.0, SVG Export Plug-In . SVG Version: 6.00 Build 0)  -->
<!DOCTYPE svg PUBLIC "-//W3C//DTD SVG 1.1//EN" "http://www.w3.org/Graphics/SVG/1.1/DTD/svg11.dtd">
<svg version="1.1" id="Layer_1" xmlns="http://www.w3.org/2000/svg" xmlns:xlink="http://www.w3.org/1999/xlink" x="0px" y="0px"
	 width="240px" height="240px" viewBox="0 0 240 240" enable-background="new 0 0 240 240" xml:space="preserve">
<path fill="#8BC862" d="M240,119.986c0,66.265-53.719,119.989-119.986,119.989S0.026,186.251,0.026,119.986
	C0.026,53.718,53.746,0,120.014,0C186.281,0,240,53.718,240,119.986z"/>
<g>
	<path d="M127.421,107.62c0,0,0.194-0.361,0.573-0.955c0.412-0.577,0.867-1.452,1.74-2.313c0.422-0.439,0.889-0.923,1.412-1.405
		c0.512-0.513,1.117-0.908,1.744-1.351c0.631-0.43,1.256-0.938,1.988-1.257c0.725-0.357,1.451-0.719,2.182-1.083
		c0.771-0.263,1.535-0.527,2.295-0.783c0.742-0.307,1.539-0.364,2.27-0.548c1.473-0.34,2.889-0.403,4.087-0.451
		c1.194-0.061,2.204,0.079,2.903,0.138c0.701,0.082,1.103,0.156,1.103,0.156s-1.493,0.711-3.683,1.475
		c-1.082,0.44-2.361,0.814-3.676,1.342c-1.342,0.459-2.715,1.027-4.101,1.566c-1.347,0.606-2.729,1.151-3.959,1.805
		c-0.599,0.344-1.28,0.556-1.806,0.895c-0.539,0.324-1.084,0.6-1.596,0.856c-1.025,0.502-1.859,1.109-2.482,1.409
		C127.795,107.451,127.421,107.62,127.421,107.62z"/>
	<path d="M40.318,167.766c0,0,0.6-0.166,1.727-0.473c0.564-0.146,1.253-0.361,2.075-0.551c0.855-0.057,1.839-0.121,2.942-0.19
		c2.188,0.082,4.859,0.5,7.8,0.819c3.046,0.294,6.24-0.406,9.906-1.25c1.818-0.415,3.745-0.848,5.802-1.066
		c2.102-0.229,4.171-0.119,6.318-0.047c2.122,0.102,4.343,0.047,6.264-0.279c2.15-0.691,4.347-1.401,6.583-2.123
		c0.617-0.178,1.018-0.373,1.818-0.541l1.76-0.172c0.55-0.113,1.287,0.037,1.954,0.1c0.697,0.059,1.361,0.175,1.954,0.396
		c2.505,0.699,4.639,2.057,6.781,2.971c4.197,2.063,9.123,1.209,14.065,0.761c1.243-0.183,2.572-0.069,3.871-0.058l3.703,0.103
		c2.518,0.149,4.842-0.06,7.346-0.131c1.246,0.021,2.361-0.109,3.826,0.166c1.379,0.221,2.598,0.85,3.646,1.362
		c1.078,0.496,2.227,1.213,3.148,1.682c0.951,0.545,1.814,0.585,2.99,0.6c1.075,0.081,2.139-0.113,3.321-0.197
		c1.118-0.181,2.034-0.396,3.088-0.732c1.968-0.633,4.2-1.689,6.259-2.135c1.027-0.284,2.045-0.563,3.049-0.836
		c1.078-0.102,2.145-0.193,3.186-0.287c2.104-0.34,4.072,0.096,5.975,0.261c0.965,0.04,1.855,0.334,2.727,0.601
		c0.875,0.263,1.727,0.521,2.552,0.77c1.62,0.486,3.153,0.949,4.595,1.384c2.912,0.609,5.502,0.894,7.688,0.938
		c4.338,0.205,6.834,0.238,6.834,0.238s-0.625,0.023-1.789,0.074c-1.166,0.036-2.869,0.162-5.059,0.146
		c-2.166,0.063-4.869-0.078-7.904-0.553c-1.483-0.363-3.061-0.752-4.723-1.162c-1.636-0.315-3.281-1.051-5.104-1.127
		c-1.813-0.096-3.711-0.451-5.615-0.064c-0.952,0.105-1.922,0.216-2.909,0.328c-0.988,0.31-1.996,0.619-3.015,0.938
		c-2.127,0.539-3.836,1.488-6.11,2.313c-1.062,0.401-2.369,0.729-3.502,0.896c-1.099,0.092-2.326,0.321-3.584,0.248
		c-1.133,0.041-2.712-0.109-3.824-0.757c-1.194-0.594-2.069-1.155-3.176-1.646c-1.097-0.527-2.082-1.01-3.101-1.156
		c-0.931-0.2-2.269-0.094-3.463-0.09c-2.396,0.099-4.99,0.328-7.431,0.207l-3.735-0.063c-1.188,0.004-2.353-0.096-3.577,0.087
		c-2.332,0.139-5.111,0.605-7.541,0.486l-1.857-0.053l-0.464-0.008c-0.33-0.027-0.374-0.063-0.575-0.098l-0.985-0.189
		c-1.331-0.193-2.529-0.767-3.71-1.234c-2.333-1.047-4.35-2.348-6.483-2.947c-0.536-0.217-1.047-0.299-1.544-0.343
		c-0.515-0.048-0.954-0.228-1.586-0.114l-1.762,0.153l-1.541,0.47c-2.213,0.676-4.391,1.338-6.521,1.99
		c-2.515,0.38-4.703,0.289-6.848,0.134c-2.117-0.144-4.213-0.313-6.123-0.155c-1.946,0.146-3.833,0.498-5.664,0.86
		c-3.596,0.75-7.237,1.3-10.245,0.822c-3.058-0.493-5.599-1.031-7.752-1.229c-1.073,0.002-2.03,0.006-2.864,0.01
		c-0.831,0.129-1.536,0.295-2.107,0.397C40.929,167.643,40.318,167.766,40.318,167.766z"/>
	<path d="M137.43,76.491l1.563-0.698l1.416-0.845l1.28-1.021l1.115-1.182c0.666-0.863,1.299-1.726,1.84-2.668
		c0.527-0.954,1-1.937,1.459-2.934c1.801-4.021,2.922-8.438,5.405-12.617l1.232,2.338c-1.36-0.03-2.714-0.002-4.058,0.093
		c-0.672,0.021-1.326,0.15-1.996,0.217c-0.672,0.052-1.309,0.251-1.965,0.368c-0.664,0.104-1.269,0.363-1.908,0.532
		c-0.647,0.148-1.221,0.461-1.84,0.681c-1.203,0.511-2.289,1.209-3.317,1.977c-0.449,0.441-0.964,0.838-1.384,1.321
		c-0.36,0.518-0.869,0.955-1.137,1.542c-0.66,1.093-1.226,2.305-1.469,3.615c-0.165,0.651-0.313,1.311-0.339,1.997
		c-0.078,0.68-0.149,1.366-0.088,2.06c0.047,0.689-0.009,1.404,0.139,2.091l0.261,2.118l-0.769-2.007
		c-0.276-0.674-0.354-1.396-0.534-2.1c-0.195-0.711-0.255-1.438-0.313-2.181c-0.098-0.734-0.098-1.481,0-2.233
		c0.093-1.501,0.509-3.012,1.177-4.407c0.269-0.74,0.795-1.33,1.194-2.004c0.451-0.632,1.015-1.177,1.531-1.768
		c1.16-1.033,2.438-1.925,3.812-2.612c0.698-0.303,1.37-0.702,2.094-0.918c0.724-0.224,1.435-0.519,2.173-0.659
		c0.735-0.147,1.465-0.38,2.205-0.458c0.737-0.091,1.48-0.242,2.223-0.28c1.486-0.138,2.978-0.099,4.448-0.048l2.615,0.09
		l-1.386,2.25c-2.215,3.6-3.68,7.972-5.981,12.024c-1.146,2.027-2.536,4.005-4.362,5.552l-1.438,1.05
		c-0.523,0.284-1.034,0.579-1.561,0.835c-0.563,0.203-1.107,0.435-1.66,0.591L137.43,76.491z"/>
	<path d="M133.128,76.812c-0.431-1.167-0.901-2.32-1.386-3.418c-0.53-1.103-1.113-2.162-1.773-3.16
		c-0.682-0.984-1.373-1.942-2.178-2.79c-0.816-0.83-1.656-1.629-2.604-2.265c-0.933-0.661-1.937-1.201-2.981-1.617
		c-0.511-0.235-1.043-0.421-1.595-0.557c-0.536-0.177-1.085-0.295-1.648-0.373c-1.108-0.215-2.259-0.282-3.404-0.288
		c-1.146-0.033-2.302,0.116-3.453,0.232l1.267-2.022c0.392,1.069,0.79,2.133,1.263,3.173c0.494,1.035,1.033,2.041,1.638,3.012
		c1.179,1.96,2.621,3.75,4.263,5.324c1.65,1.559,3.541,2.886,5.666,3.736l1.637,0.575l1.713,0.359
		C130.716,76.858,131.902,76.883,133.128,76.812l-1.763,0.536l-1.846,0.246c-1.25,0.045-2.521-0.025-3.779-0.275
		c-1.232-0.307-2.447-0.729-3.604-1.293c-1.141-0.58-2.22-1.278-3.235-2.057c-2.025-1.567-3.72-3.507-5.16-5.6
		c-1.39-2.13-2.555-4.415-3.33-6.845l-0.586-1.862l1.854-0.165c1.303-0.115,2.602-0.25,3.924-0.192
		c1.311,0.024,2.645,0.14,3.937,0.481c0.655,0.133,1.298,0.313,1.921,0.557c0.642,0.199,1.259,0.454,1.854,0.766
		c1.222,0.549,2.322,1.343,3.332,2.197c0.529,0.397,0.965,0.898,1.431,1.363c0.483,0.448,0.828,1.017,1.244,1.518
		c0.758,1.061,1.403,2.181,1.937,3.343c0.502,1.182,0.901,2.381,1.231,3.594C132.811,74.355,133.008,75.572,133.128,76.812z"/>
	<path d="M89.575,184.873c-0.039-0.061,0.584-0.064,1.337-0.695c0.811-0.585,1.479-1.882,2.709-3.354
		c0.322-0.362,0.665-0.725,1.159-1.051c0.439-0.271,0.898-0.556,1.376-0.849c1-0.485,2.288-1.011,3.546-1.282
		c2.549-0.67,5.49-1.148,8.625-1.596c3.083-0.502,6.303-1.454,8.412-4.177c0.293-0.345,0.64-0.683,0.899-1.034l0.591-1.084
		l0.615-1.072l0.453-1.265c0.331-0.835,0.613-1.69,0.771-2.618c0.215-0.898,0.417-1.814,0.478-2.775
		c0.423-3.74,0.243-7.922-0.583-11.729l-0.365-1.533l-0.533-1.322c-0.312-0.871-0.734-1.787-1.222-2.715
		c-0.884-1.854-1.983-3.683-2.95-5.646c-0.97-1.942-1.896-4.019-2.416-6.261c-0.382-1.082-0.379-2.273-0.495-3.426l-0.068-0.869
		c-0.016-0.613,0.049-0.621,0.075-0.961l0.193-1.564c0.04-1.001,0.4-2.139,0.803-3.271c0.203-0.554,0.379-1.135,0.614-1.65
		l0.813-1.446l0.822-1.426l0.967-1.272c0.636-0.86,1.286-1.69,1.997-2.418c2.714-3.08,5.649-5.584,7.93-8.309
		c0.958-1.29,2.245-2.859,2.866-4.273c0.367-0.73,0.777-1.414,1.098-2.15c0.293-0.757,0.583-1.497,0.863-2.223
		c1.076-2.933,1.691-5.757,2.129-8.286c0.326-2.534,0.537-4.781,0.453-6.63c0.047-1.857-0.15-3.301-0.252-4.298
		c-0.104-0.996-0.155-1.526-0.155-1.526s0.114,0.524,0.323,1.498c0.195,0.982,0.604,2.414,0.689,4.297
		c0.239,1.87,0.219,4.16,0.098,6.792c-0.221,2.621-0.606,5.599-1.613,8.715c-0.26,0.777-0.521,1.572-0.791,2.382
		c-0.299,0.808-0.719,1.603-1.09,2.429c-0.744,1.765-1.707,3.021-2.838,4.71c-2.285,3.019-5.11,5.723-7.629,8.679
		c-0.666,0.723-1.234,1.5-1.789,2.289l-0.851,1.176l-0.67,1.261l-0.68,1.264c-0.176,0.426-0.279,0.854-0.424,1.277
		c-0.306,0.826-0.638,1.662-0.679,2.779c-0.669,3.875,0.605,7.605,2.512,11.314c0.897,1.869,1.986,3.707,2.911,5.692
		c0.492,0.958,0.953,1.968,1.349,3.09l0.604,1.627l0.352,1.54c0.922,4.382,0.896,8.594,0.367,12.757
		c-0.098,1.039-0.346,2.056-0.613,3.058c-0.195,1.015-0.561,1.983-0.99,2.927l-0.596,1.405l-0.856,1.35l-0.862,1.313
		c-0.31,0.373-0.65,0.67-0.967,1.002l-0.959,0.973c-0.468,0.499-0.83,0.621-1.245,0.945c-0.779,0.592-1.69,0.926-2.53,1.313
		c-1.745,0.65-3.468,0.916-5.088,1.123c-3.207,0.33-6.089,0.555-8.618,0.99c-1.295,0.183-2.321,0.509-3.369,0.896
		c-0.502,0.256-0.982,0.495-1.443,0.732c-0.378,0.199-0.766,0.525-1.08,0.837c-1.253,1.293-2.156,2.546-3.052,3.067
		C90.134,184.885,89.555,184.805,89.575,184.873z"/>
	<path d="M123.273,154.283c0,0-0.283-1.76-0.313-4.34c-0.029-2.588,0.197-6.107,1.464-9.555c0.368-0.85,0.726-1.697,1.231-2.49
		c0.435-0.824,1.088-1.521,1.703-2.185c0.691-0.604,1.371-1.207,2.168-1.521c0.744-0.42,1.521-0.604,2.232-0.707
		c0.693-0.204,1.355-0.057,1.91-0.057c0.557-0.017,1.023,0.157,1.404,0.26c0.752,0.222,1.158,0.373,1.158,0.373
		s-0.433,0.09-1.187,0.252c-0.358,0.067-0.804,0.119-1.271,0.309c-0.461,0.197-1.01,0.263-1.502,0.585
		c-0.521,0.256-1.034,0.558-1.512,0.976c-0.522,0.327-0.896,0.92-1.363,1.393c-0.409,0.56-0.771,1.158-1.121,1.826
		c-0.379,0.633-0.644,1.381-0.93,2.104c-0.604,1.459-0.992,3.048-1.451,4.522c-0.397,1.509-0.797,2.932-1.164,4.162
		C124.029,152.667,123.273,154.283,123.273,154.283z"/>
	<path d="M113.42,128.877c0,0-0.109-0.508-0.26-1.398c-0.176-0.896-0.444-2.074-0.827-3.521c-0.384-1.433-0.903-3.069-1.511-4.786
		c-0.647-1.708-1.349-3.508-2.229-5.21c-0.432-0.847-0.861-1.708-1.362-2.485c-0.511-0.779-0.967-1.571-1.529-2.241
		c-0.503-0.734-1.123-1.286-1.642-1.913c-0.625-0.455-1.123-1.099-1.733-1.417c-0.584-0.385-1.127-0.771-1.671-0.968
		c-0.533-0.231-1.007-0.498-1.433-0.563c-0.864-0.244-1.355-0.381-1.355-0.381s0.489-0.107,1.418-0.236
		c0.471-0.104,1.028-0.051,1.686,0.024c0.68,0.018,1.392,0.232,2.17,0.52c0.826,0.208,1.539,0.739,2.384,1.199
		c0.716,0.583,1.602,1.127,2.246,1.91c0.719,0.73,1.413,1.523,1.989,2.411c0.607,0.868,1.125,1.802,1.632,2.738
		c0.919,1.925,1.638,3.913,2.07,5.838c0.436,1.918,0.647,3.752,0.646,5.327c0.03,1.561-0.151,2.91-0.328,3.776
		C113.572,128.377,113.42,128.877,113.42,128.877z"/>
	<path d="M141.307,99.221c0.688-1.283,1.473-2.559,2.521-3.675c0.482-0.591,1.092-1.073,1.691-1.577
		c0.625-0.492,1.338-0.882,2.104-1.224c1.55-0.669,3.521-0.72,5.138-0.091c1.645,0.592,2.827,1.743,3.825,2.869
		c1.97,2.297,3.422,4.801,5.584,6.674c1.037,0.955,2.229,1.742,3.463,2.271c1.234,0.548,2.523,0.738,3.736,0.671l6.549-0.387
		l-6.118,2.815c-2.486,1.144-5.064,1.52-7.619,1.783c-2.563,0.263-5.147,0.135-7.688-0.317c-2.537-0.442-5.065-1.222-7.354-2.566
		c-1.13-0.697-2.205-1.523-3.065-2.57c-0.826-1.058-1.429-2.336-1.49-3.626l0.306-0.075c1.059,2.226,3.09,3.462,5.243,4.221
		c2.16,0.791,4.486,1.175,6.82,1.439c2.338,0.246,4.698,0.318,7.06,0.311c2.35-0.036,4.729-0.311,6.854-0.939l0.433,2.428
		c-0.832-0.104-1.635-0.299-2.385-0.615c-0.742-0.319-1.435-0.71-2.072-1.15c-1.269-0.886-2.31-1.953-3.349-2.982
		c-2.004-2.103-4.105-4.16-6.372-5.77c-1.128-0.791-2.261-1.457-3.324-1.861c-0.545-0.16-1.071-0.336-1.623-0.331
		c-0.549-0.037-1.106,0.083-1.688,0.203c-0.582,0.164-1.149,0.425-1.741,0.711c-0.578,0.308-1.158,0.647-1.729,1.039
		c-1.15,0.742-2.271,1.637-3.463,2.529L141.307,99.221z"/>
	<path d="M75.406,117.28c0,0,0.364-0.339,1.024-0.885c0.682-0.501,1.824-1.178,3.185-1.735c2.75-1.186,6.559-2.049,10.297-2.751
		c3.756-0.66,7.43-1.234,10.045-2.038c0.662-0.191,1.199-0.462,1.746-0.647c0.483-0.28,0.906-0.522,1.249-0.722
		c0.625-0.563,0.979-0.881,0.979-0.881s-0.142,0.441-0.515,1.298c-0.251,0.354-0.584,0.796-1.016,1.279
		c-0.471,0.384-1.005,0.915-1.66,1.295c-1.291,0.842-2.924,1.558-4.689,2.121c-1.762,0.595-3.677,0.998-5.572,1.379
		c-3.805,0.684-7.59,1.019-10.389,1.395c-0.68,0.128-1.367,0.167-1.901,0.282c-0.544,0.121-1.057,0.153-1.469,0.276
		C75.892,117.173,75.406,117.28,75.406,117.28z"/>
	<path d="M104.611,106.586c0,0,0.197-0.785,0.16-2.131c-0.019-1.328-0.331-3.277-1.546-5.137c-1.149-1.854-3.218-3.6-5.722-3.948
		c-1.242-0.163-2.544,0.019-3.768,0.544c-1.282,0.512-2.327,1.298-3.189,2.34c-0.863,1.043-1.575,2.277-2.119,3.587
		c-0.604,1.367-0.797,2.571-1.381,4.174c-0.203,0.667-0.55,1.405-0.925,2.129c-0.331,0.755-0.761,1.357-1.182,1.942
		c-0.816,1.189-1.72,2.2-2.646,3.02c-0.876,0.867-1.816,1.498-2.622,2.071c-0.825,0.548-1.619,0.908-2.224,1.255
		c-1.276,0.603-2.041,0.847-2.041,0.847s0.539-0.624,1.539-1.542c0.92-1.03,2.258-2.418,3.6-4.222
		c0.361-0.431,0.67-0.924,0.996-1.422c0.346-0.491,0.691-0.995,0.97-1.557c0.303-0.549,0.628-1.108,0.854-1.659
		c0.262-0.535,0.532-1.102,0.733-1.851c0.417-1.153,0.844-2.941,1.517-4.389c0.674-1.516,1.525-3.043,2.755-4.333
		c1.207-1.308,2.813-2.362,4.434-2.888c1.651-0.594,3.483-0.68,5.127-0.319c3.354,0.779,5.547,3.313,6.521,5.571
		c1.016,2.32,0.992,4.445,0.783,5.82C104.967,105.881,104.611,106.586,104.611,106.586z"/>
	<path d="M127.904,135.1c0.299-1.257,0.82-2.572,1.678-3.709c0.839-1.135,2.117-2.119,3.617-2.533
		c1.5-0.474,3.058-0.309,4.439-0.012c1.391,0.354,2.652,0.911,3.78,1.641c2.284,1.414,4.22,3.175,6.472,4.397
		c2.205,1.236,4.729,2.146,7.043,2.158l9.641,0.042l-9.69,2.094c-2.11,0.456-4.241,1.108-6.415,1.795
		c-2.174,0.703-4.395,1.446-6.777,1.813c-2.355,0.396-4.895,0.492-7.355-0.139c-2.455-0.646-4.666-2.199-5.883-4.254l0.229-0.215
		c1.914,1.319,3.959,2.063,6.051,2.116c2.088,0.122,4.199-0.262,6.345-0.729c2.131-0.508,4.323-1.053,6.588-1.558
		c2.252-0.5,4.584-1.05,7.063-0.973l-0.054,2.137c-2.813-0.711-4.946-2.254-7.237-3.459c-2.248-1.267-4.695-2.229-7.054-3.053
		c-2.354-0.747-4.563-1.688-6.618-1.375c-1.016,0.159-2.007,0.594-2.938,1.312c-0.938,0.723-1.773,1.62-2.646,2.653L127.904,135.1z"
		/>
	<path d="M113.047,184.873c0,0-0.146-0.264-0.362-0.723c-0.092-0.236-0.265-0.479-0.288-0.875c-0.033-0.367-0.16-0.873-0.061-1.332
		c0.061-0.967,0.507-2.08,1.187-3.021c0.35-0.447,0.704-0.943,1.123-1.32l1.229-1.127c1.715-1.385,3.018-2.348,3.474-3.567
		c0.175-0.304,0.159-0.634,0.266-0.931c0.092-0.305,0.071-0.584,0.099-0.824c0.049-0.504,0.073-0.795,0.073-0.795
		s0.202,0.199,0.523,0.621c0.144,0.213,0.39,0.459,0.493,0.822c0.104,0.357,0.359,0.77,0.338,1.27
		c0.049,0.504,0.055,1.07-0.143,1.636c-0.116,0.601-0.428,1.12-0.747,1.646c-0.349,0.48-0.697,0.991-1.127,1.375
		c-0.409,0.418-0.828,0.776-1.236,1.147c-1.708,1.366-3.1,2.396-3.834,3.583c-0.223,0.296-0.291,0.561-0.463,0.836
		c-0.163,0.256-0.214,0.585-0.288,0.818C113.157,184.592,113.047,184.873,113.047,184.873z"/>
	<path d="M149.67,178.682c0,0-0.566,0.09-1.506,0.313c-0.951,0.191-2.27,0.617-3.916,1.021c-0.83,0.187-1.736,0.399-2.752,0.483
		c-0.998,0.082-2.146,0.116-3.33-0.255c-1.043-0.297-2.286-0.91-3.176-1.68c-0.94-0.77-1.682-1.613-2.453-2.235
		c-0.752-0.659-1.563-1.142-2.461-1.427c-1.035-0.324-2.072-0.717-3.063-1.094c-1.979-0.789-3.803-1.668-5.22-2.754
		c-0.706-0.541-1.322-1.152-1.656-1.904c-0.364-0.768-0.137-1.614,0.231-1.996c0.746-0.771,1.328-0.875,1.307-0.915
		c0,0-0.482,0.372-0.923,1.161c-0.208,0.4-0.188,0.895,0.147,1.326c0.343,0.436,0.945,0.82,1.625,1.192
		c1.402,0.72,3.209,1.332,5.168,1.935c0.99,0.28,2.021,0.582,3.061,0.885c1.204,0.345,2.368,0.992,3.301,1.799
		c0.932,0.809,1.646,1.667,2.396,2.304c0.758,0.675,1.44,1.13,2.381,1.482c1.608,0.651,3.592,0.478,5.221,0.399
		c1.652-0.117,3.08-0.177,4.066-0.173C149.117,178.572,149.67,178.682,149.67,178.682z"/>
	<path d="M88.018,176.579c0,0,0.044-0.129,0.125-0.367c0.054-0.251,0.213-0.569,0.597-0.961c0.728-0.705,2.053-1.351,3.686-1.669
		c1.629-0.346,3.547-0.471,5.567-0.469c2.021-0.021,4.175,0.16,6.232,0.212c0.484,0.024,1.084,0.028,1.402,0.021l1.573-0.174
		c0.567-0.027,0.951-0.172,1.341-0.291c0.396-0.087,0.812-0.225,1.242-0.461c0.904-0.426,1.775-0.836,2.601-1.225
		c0.875-0.377,1.75-0.623,2.508-0.855c1.522-0.471,2.782-0.818,3.604-1.223c0.367-0.236,0.739-0.363,0.875-0.563
		c0.176-0.18,0.274-0.271,0.274-0.271c-0.024-0.035-0.135,0.566-0.896,1.217c-0.75,0.6-1.907,1.373-3.346,2.09
		c-0.719,0.377-1.465,0.741-2.228,1.176c-0.771,0.479-1.513,0.967-2.461,1.504c-0.426,0.28-0.949,0.52-1.549,0.707
		c-0.58,0.229-1.176,0.424-1.666,0.444l-1.566,0.213c-0.743,0.06-1.204,0.052-1.783,0.041c-4.345-0.222-8.465-0.847-11.565-0.759
		c-1.53,0.04-2.811,0.234-3.554,0.686c-0.344,0.209-0.658,0.438-0.776,0.672C88.101,176.475,88.018,176.579,88.018,176.579z"/>
	<path d="M138.049,185.393c0,0-0.393,0.004-1.063-0.049c-0.666-0.085-1.633-0.099-2.771-0.32c-1.15-0.166-2.492-0.541-3.886-1.174
		c-0.652-0.387-1.412-0.699-2.021-1.261c-0.658-0.499-1.246-1.092-1.769-1.749c-0.17-0.225-0.183-0.186-0.476-0.624l-0.235-0.516
		c-0.157-0.323-0.304-0.69-0.429-1.123c-0.282-0.859-0.422-1.545-0.601-2.188c-0.214-0.604-0.352-1.187-0.616-1.625
		c-0.365-0.535-0.676-1.089-1.004-1.48c-0.328-0.402-0.625-0.848-0.88-1.285c-0.268-0.4-0.479-0.764-0.563-1.119
		c-0.213-0.678-0.287-1.036-0.287-1.036s0.279,0.31,0.682,0.802c0.375,0.551,1.127,0.967,2.068,1.758
		c0.51,0.373,0.922,0.813,1.369,1.291c0.527,0.578,0.875,1.317,1.183,2.014c0.261,0.701,0.565,1.41,0.729,1.968
		c0.07,0.288,0.205,0.611,0.396,0.955l0.253,0.509c-0.063-0.143,0.178,0.176,0.246,0.243c1.618,2.169,4.168,3.455,6.225,4.365
		c1.037,0.479,1.896,0.882,2.5,1.157C137.711,185.195,138.049,185.393,138.049,185.393z"/>
	<path d="M152.826,174.504c0,0-2.149,0.189-5.352,0.246c-0.801-0.004-1.664-0.004-2.582-0.008c-0.912,0.021-1.884-0.127-2.877-0.238
		c-2.004-0.217-4.132-0.539-6.259-0.854c-1.284-0.344-2.087-0.51-3.205-1.039c-1.087-0.463-1.983-0.936-2.849-1.344
		c-0.863-0.435-1.732-0.666-2.457-0.982c-0.951-0.195-1.625-0.311-2.448-0.375c-1.575-0.105-3.017-0.393-3.888-0.827
		c-0.455-0.158-0.739-0.442-0.954-0.576c-0.203-0.143-0.313-0.224-0.313-0.224s0.518,0.209,1.407,0.365
		c0.896,0.217,2.146,0.065,3.755-0.09c0.771-0.095,1.829-0.104,2.687-0.015c1.012,0.239,2.054,0.404,3,0.808
		c0.963,0.393,1.954,0.744,2.788,1.109c0.765,0.404,2.08,0.657,2.841,0.862c2.071,0.358,4.144,0.711,6.084,1.118
		c0.979,0.164,1.897,0.461,2.813,0.556c0.906,0.146,1.765,0.285,2.555,0.403C150.732,173.971,152.826,174.504,152.826,174.504z"/>
</g>
</svg>
