<?xml version="1.0" encoding="utf-8"?>
<!-- Generator: Adobe Illustrator 16.0.0, SVG Export Plug-In . SVG Version: 6.00 Build 0)  -->
<!DOCTYPE svg PUBLIC "-//W3C//DTD SVG 1.1//EN" "http://www.w3.org/Graphics/SVG/1.1/DTD/svg11.dtd">
<svg version="1.1" id="Layer_1" xmlns="http://www.w3.org/2000/svg" xmlns:xlink="http://www.w3.org/1999/xlink" x="0px" y="0px"
	 width="240px" height="240px" viewBox="0 0 240 240" enable-background="new 0 0 240 240" xml:space="preserve">
<path fill="#8BC862" d="M240,119.999C240,186.27,186.275,240,120,240C53.725,240,0,186.27,0,119.999C0,53.725,53.725,0,120,0
	C186.275,0,240,53.725,240,119.999z"/>
<path d="M167.693,96.199c-1.989-7.533-4.695-14.875-8.36-21.675c-0.955-1.673-1.88-3.371-3-4.927
	c-1.047-1.615-2.271-3.089-3.503-4.541l-1.977-2.046l-2.168-1.818c-1.518-1.09-3.086-2.125-4.803-2.819
	c-0.818-0.453-1.73-0.631-2.611-0.881c-0.875-0.307-1.787-0.41-2.709-0.462l-1.375-0.129c-0.234-0.03-0.899,0.081-1.328,0.112
	c-1.047,0.023-1.748,0.399-2.551,0.633c-1.558,0.686-3.101,1.715-4.037,3.158c-1.139,1.342-1.414,3.096-1.537,4.769
	c0.154,0.807,0.265,1.795,0.457,2.452c0.406,1.03,0.72,1.456,1.33,2.123c1.146,1.268,2.695,2.283,4.342,2.912
	c1.593,0.595,3.563,0.941,4.699,0.234c1.18-0.535,1.291-2.287,0.892-4.014l1.959,0.331c-1.047,1.495-2.72,1.946-4.24,1.817
	c-1.546-0.127-3.082-1.162-3.7-2.638c-0.227-0.73-0.439-1.391-0.453-2.225c0.067-0.901,0.414-1.6,0.733-2.197
	c0.705-1.202,1.617-2.236,2.806-3.011c1.146-0.791,2.73-1.238,4.23-0.861c1.505,0.352,2.639,1.368,3.434,2.416
	c0.813,1.067,1.428,2.218,1.899,3.396c0.495,1.172,0.875,2.373,1.192,3.58c1.287,4.83,1.764,9.754,2.015,14.659
	c0.235,4.909,0.245,9.816,0.062,14.712c-0.221-4.895-0.453-9.785-0.968-14.642c-0.245-2.427-0.575-4.844-0.967-7.241
	c-0.397-2.396-0.882-4.777-1.599-7.068c-0.709-2.269-1.586-4.562-3.002-6.286c-0.696-0.86-1.565-1.517-2.479-1.682
	c-0.906-0.201-1.863,0.093-2.725,0.682c-0.862,0.568-1.607,1.427-2.125,2.339c-0.25,0.478-0.424,0.923-0.451,1.248
	c0.009,0.373,0.177,0.924,0.293,1.341c0.377,0.809,1.117,1.281,1.997,1.371c0.866,0.098,1.872-0.287,2.228-0.878l1.439-2.377
	l0.52,2.708c0.202,1.062,0.381,2.14,0.215,3.339c-0.227,1.159-0.879,2.527-2.095,3.109c-1.126,0.667-2.354,0.761-3.45,0.69
	c-1.109-0.083-2.168-0.32-3.158-0.704c-1.986-0.748-3.817-1.878-5.293-3.493c-0.73-0.739-1.453-2.016-1.721-2.807
	c-0.369-1.193-0.426-2.178-0.594-3.279c0.122-2.167,0.602-4.439,2.021-6.129c1.248-1.807,3.086-3.03,5.068-3.865
	c1.059-0.332,2.18-0.733,3.104-0.729c0.539-0.031,0.851-0.122,1.58-0.106l1.537,0.155c1.027,0.075,2.045,0.208,3.024,0.552
	c0.985,0.288,1.996,0.513,2.896,1.015c1.897,0.789,3.588,1.94,5.174,3.184l2.244,2.017l2.012,2.223
	c1.236,1.558,2.451,3.133,3.472,4.828c1.103,1.646,1.989,3.411,2.901,5.15c0.869,1.765,1.691,3.548,2.395,5.383
	c0.703,1.827,1.385,3.666,1.959,5.538C166.038,88.566,167.016,92.362,167.693,96.199z"/>
<path d="M175.331,100.592l-0.644-6.083c-0.084-2.052-0.746-3.995-1.1-5.984l-0.633-2.957l-0.879-2.909
	c-0.618-1.929-1.057-3.908-1.84-5.783c-0.729-1.888-1.401-3.797-2.174-5.666l-2.465-5.55c-1.729-3.663-3.517-7.292-5.445-10.877
	c-0.961-1.791-1.836-3.629-3.07-4.989c-1.245-1.456-2.73-2.74-4.344-3.796c-3.184-2.06-7.127-3.45-10.53-2.256
	c-0.429,0.125-0.833,0.302-1.209,0.548l-0.582,0.326l-0.5,0.419c-0.894,0.688-1.291,1.242-1.676,1.958
	c-0.755,1.459-0.487,3.242,0.478,4.757c0.948,1.52,2.479,2.762,4.15,3.482c1.665,0.71,3.563,0.907,4.936,0.019l0.18,1.558
	c-0.694-0.369-1.414-0.626-2.088-1.093c-0.334-0.234-0.688-0.401-1.004-0.692c-0.31-0.3-0.648-0.532-0.922-0.895
	c-0.24-0.394-0.57-0.708-0.677-1.208c-0.187-0.46-0.229-0.935-0.168-1.418c0.083-0.958,0.539-1.709,0.978-2.396l0.145-0.22
	l0.208-0.051l1.536-0.381c0.525-0.073,1.091-0.054,1.629-0.066c0.538,0.164,1.136,0.182,1.609,0.504
	c0.508,0.266,0.967,0.584,1.313,1.011c0.774,0.784,1.185,1.759,1.569,2.689c0.337,0.952,0.598,1.914,0.802,2.877
	c0.817,3.85,1.042,7.736,2.155,11.478c-1.473-3.626-1.935-7.572-2.98-11.271c-0.264-0.924-0.568-1.828-0.943-2.688
	c-0.399-0.833-0.845-1.658-1.469-2.237c-0.285-0.334-0.637-0.545-1.005-0.718c-0.343-0.235-0.789-0.192-1.169-0.323
	c-0.428,0.044-0.848,0.035-1.271,0.11l-1.287,0.372l0.35-0.271c-0.335,0.575-0.637,1.164-0.645,1.704
	c-0.023,0.27,0.004,0.527,0.129,0.763c0.025,0.257,0.298,0.464,0.437,0.701c0.177,0.229,0.478,0.411,0.702,0.624
	c0.24,0.211,0.576,0.354,0.857,0.536c0.563,0.37,1.273,0.594,1.897,0.899l1.417,0.694l-1.232,0.866
	c-2.088,1.468-4.752,1.228-6.767,0.371c-2.065-0.871-3.87-2.286-5.123-4.202c-1.268-1.852-1.804-4.595-0.675-6.828
	c0.516-1.094,1.471-2.145,2.191-2.688l0.668-0.563l0.74-0.438c0.483-0.317,1.006-0.555,1.555-0.73
	c2.175-0.802,4.544-0.755,6.672-0.234c2.15,0.51,4.111,1.5,5.895,2.689c1.774,1.2,3.385,2.628,4.769,4.286
	c1.481,1.711,2.317,3.625,3.267,5.424c1.883,3.622,3.664,7.321,5.346,11.06l2.273,5.722c0.705,1.925,1.313,3.891,1.975,5.831
	c0.717,1.923,1.088,3.959,1.631,5.933l0.735,2.986l0.453,3.058c0.229,2.041,0.759,4.049,0.716,6.094L175.331,100.592z"/>
<path d="M150.045,90.781c0,0-1.539,0.711-4.234,1.956c-1.352,0.622-2.988,1.377-4.869,2.244c-1.859,0.891-3.881,2.003-6.135,3.158
	c-4.513,2.343-9.777,5.077-15.422,8.005c-2.783,1.535-5.884,2.808-8.948,4.209c-3.04,1.484-6.273,2.582-9.542,3.586
	c-6.517,2.023-13.166,3.625-19.487,4.612c-3.162,0.468-6.236,0.81-9.16,0.986c-2.929,0.176-5.7,0.14-8.256,0.054
	c-2.55-0.219-4.883-0.421-6.915-0.856c-2.063-0.275-3.771-0.932-5.21-1.283c-1.42-0.445-2.477-0.966-3.22-1.238
	c-0.741-0.298-1.132-0.458-1.132-0.458s0.397,0.149,1.145,0.425c0.753,0.251,1.818,0.738,3.245,1.143
	c1.451,0.307,3.159,0.912,5.222,1.126c2.033,0.374,4.356,0.507,6.888,0.651c2.538,0.014,5.284-0.031,8.18-0.288
	c2.896-0.259,5.929-0.686,9.049-1.24c6.232-1.157,12.774-2.934,19.163-5.123c3.196-1.082,6.374-2.266,9.303-3.808
	c2.973-1.468,5.93-2.775,8.685-4.396c5.571-3.1,10.775-5.992,15.232-8.473c2.244-1.235,4.282-2.429,6.129-3.376
	c1.852-0.921,3.469-1.726,4.801-2.385c2.66-1.322,4.182-2.079,4.182-2.079L150.045,90.781z"/>
<path d="M166.313,90.704c0,0,0.252,0.133,0.725,0.381c0.465,0.263,1.189,0.567,2.002,1.168c0.861,0.542,1.814,1.306,2.913,2.192
	c1.054,0.929,2.224,2.017,3.366,3.325c1.146,1.302,2.322,2.776,3.441,4.42c1.104,1.649,2.241,3.417,3.233,5.343
	c2.059,3.813,3.831,8.095,5.21,12.497c2.718,8.801,3.824,18.168,2.663,25.113c-0.245,1.729-0.718,3.289-1.237,4.621
	c-0.568,1.313-1.15,2.435-1.85,3.205c-0.301,0.416-0.647,0.723-0.967,0.965c-0.295,0.267-0.565,0.459-0.819,0.568
	c-0.474,0.251-0.726,0.387-0.726,0.387s0.217-0.185,0.625-0.523c0.412-0.317,0.907-0.932,1.39-1.752
	c1.015-1.641,1.661-4.361,1.796-7.666c0.158-3.303-0.153-7.187-0.827-11.295c-0.312-2.061-0.799-4.159-1.272-6.297
	c-0.502-2.129-1.09-4.279-1.77-6.396c-0.637-2.133-1.365-4.236-2.161-6.276c-0.821-2.026-1.593-4.043-2.514-5.913
	c-1.767-3.773-3.701-7.16-5.62-9.888c-1.919-2.723-3.77-4.856-5.238-6.143c-0.697-0.683-1.322-1.174-1.732-1.513
	S166.313,90.704,166.313,90.704z"/>
<path d="M157.023,168.76c0,0,0.496-0.033,1.363-0.099c0.43-0.04,0.967,0,1.553-0.118c0.574-0.096,1.229-0.203,1.94-0.322
	c1.401-0.354,2.996-0.859,4.533-1.764c0.8-0.385,1.521-0.971,2.305-1.479c0.742-0.588,1.497-1.17,2.208-1.838
	c1.467-1.267,2.855-2.668,4.301-3.871c1.434-1.217,2.902-2.232,4.262-2.918c0.658-0.383,1.311-0.627,1.904-0.805
	c0.574-0.216,1.086-0.361,1.523-0.427c0.857-0.146,1.352-0.231,1.352-0.231s-0.457,0.189-1.26,0.522
	c-0.803,0.294-1.879,0.888-3.07,1.698c-2.451,1.567-4.979,4.521-7.976,7.207c-1.499,1.324-3.157,2.567-4.921,3.363
	c-0.846,0.469-1.764,0.694-2.6,0.959c-0.849,0.229-1.682,0.307-2.428,0.448c-1.544,0.093-2.789,0.028-3.64-0.124
	C157.516,168.836,157.023,168.76,157.023,168.76z"/>
<path d="M143.725,122.299c0,0,0.366,0.938,0.939,2.594c0.559,1.652,1.352,4.018,2.307,6.854c0.442,1.424,1.047,2.904,1.598,4.497
	c0.646,1.546,1.281,3.202,2.115,4.797c0.428,0.79,0.825,1.616,1.284,2.413c0.509,0.758,1.023,1.525,1.54,2.302
	c0.475,0.812,1.186,1.427,1.766,2.155l0.877,1.016c0.38,0.36,0.734,0.655,1.041,0.883c2.92,2.239,6.643,3.973,9.723,6.422
	c0.777,0.619,1.552,1.258,2.203,2.106c0.638,0.813,1.266,1.899,1.227,3.198c-0.05,1.311-0.791,2.277-1.461,2.906
	c-0.699,0.66-1.431,1.082-2.134,1.455c-2.815,1.451-5.31,1.897-7.008,2.348c-1.724,0.371-2.716,0.516-2.716,0.516
	s0.918-0.398,2.525-1.096c1.583-0.688,3.916-1.712,6.258-3.303c1.121-0.768,2.312-1.954,2.194-2.842
	c-0.046-0.892-1.315-2.109-2.739-3.078c-2.925-2.021-6.535-3.627-10.008-6.17c-0.482-0.383-0.882-0.741-1.218-1.07l-1.065-1.25
	c-0.646-0.83-1.427-1.563-1.941-2.458c-0.538-0.879-1.07-1.751-1.598-2.612c-0.453-0.896-0.838-1.806-1.25-2.685
	c-0.822-1.753-1.303-3.558-1.83-5.22c-0.44-1.687-0.856-3.28-1.112-4.769c-0.622-2.958-0.869-5.446-1.168-7.174
	C143.825,123.3,143.725,122.299,143.725,122.299z"/>
<path d="M141.912,130.643c0,0-0.311,0.061-0.896,0.174c-0.595,0.115-1.375,0.404-2.346,0.895c-0.979,0.466-2.081,1.195-3.306,2.1
	c-1.23,0.961-2.572,1.914-4.011,3.162c-1.549,1.209-2.737,2.611-4.097,4.264c-1.28,1.637-2.798,3.55-4.034,5.354
	c-1.347,1.944-2.74,3.955-4.158,6c-1.234,2.095-2.29,4.28-3.465,6.427l-0.882,1.604c-0.214,0.436-0.468,1.127-0.698,1.678
	c-0.472,1.164-0.943,2.323-1.411,3.475c-0.958,2.293-1.904,4.551-2.82,6.734l-0.343,0.814l-0.171,0.404l-0.043,0.102l-0.019,0.049
	l-0.012,0.023c0.123-0.396,0.031-0.094,0.055-0.174l-0.055,0.211c-0.15,0.561-0.3,1.117-0.45,1.668
	c-0.309,1.097-0.608,2.17-0.903,3.218c-0.615,2.091-1.157,4.065-1.426,5.89c-0.297,1.84-0.75,3.493-0.956,5.023
	c-0.244,1.521-0.459,2.847-0.63,3.94c-0.471,2.197-0.78,3.408-0.78,3.408s0.064-1.261,0.175-3.468
	c0.018-1.108,0.046-2.451,0.073-3.995c-0.015-1.542,0.199-3.31,0.386-5.226c0.128-1.945,0.502-3.971,0.937-6.095
	c0.202-1.065,0.41-2.161,0.624-3.282c0.114-0.558,0.227-1.123,0.343-1.692l0.042-0.214l0.138-0.407l0.153-0.409l0.31-0.831
	c0.832-2.216,1.696-4.505,2.571-6.832c0.448-1.159,0.9-2.327,1.36-3.498c0.245-0.612,0.41-1.118,0.728-1.819l0.918-1.727
	c1.273-2.271,2.477-4.613,3.802-6.77c1.488-1.988,2.957-3.947,4.375-5.844c1.506-2.054,3.021-3.582,4.558-5.246
	c1.52-1.576,3.189-3.166,4.732-4.15c1.5-1.146,3.135-1.996,4.457-2.75c1.371-0.747,2.615-1.34,3.697-1.684
	c1.054-0.383,1.996-0.486,2.565-0.498C141.598,130.645,141.912,130.643,141.912,130.643z"/>
<path d="M169.5,140.813c0,0,0.327,0.078,0.873,0.256c0.477,0.123,1.389,0.791,1.977,1.584c0.688,0.813,1.213,1.859,1.702,2.949
	c0.492,1.053,0.888,2.203,1.394,3.066c0.15,0.26,0.64,1.09,0.889,1.286c0.266,0.323,0.633,0.729,0.995,1.092
	c0.759,0.692,1.528,1.347,2.261,1.854c0.721,0.529,1.375,0.938,1.854,1.229c0.478,0.281,0.768,0.475,0.768,0.475
	s-0.32,0.07-0.909,0.136c-0.573,0.046-1.438,0.058-2.418-0.181c-1.004-0.186-2.124-0.638-3.237-1.322
	c-0.526-0.396-1.117-0.729-1.642-1.348c-0.631-0.66-0.782-0.92-1.298-1.699c-0.674-1.332-1.014-2.574-1.268-3.727
	c-0.264-1.113-0.437-2.145-0.668-2.96c-0.119-0.423-0.211-0.805-0.342-1.083c-0.123-0.301-0.213-0.641-0.422-0.852
	C169.674,141.104,169.5,140.813,169.5,140.813z"/>
<path stroke="#000000" stroke-width="0.75" stroke-miterlimit="10" d="M172.325,110.051c1.09,1.621,1.284,3.398,0.446,3.964
	c-0.842,0.564-2.405-0.289-3.502-1.919c-1.09-1.619-1.291-3.398-0.443-3.962C169.665,107.568,171.232,108.424,172.325,110.051z"/>
</svg>
