<?xml version="1.0" encoding="utf-8"?>
<!-- Generator: Adobe Illustrator 16.0.0, SVG Export Plug-In . SVG Version: 6.00 Build 0)  -->
<!DOCTYPE svg PUBLIC "-//W3C//DTD SVG 1.1//EN" "http://www.w3.org/Graphics/SVG/1.1/DTD/svg11.dtd">
<svg version="1.1" id="Layer_1" xmlns="http://www.w3.org/2000/svg" xmlns:xlink="http://www.w3.org/1999/xlink" x="0px" y="0px"
	 width="240px" height="240px" viewBox="0 0 240 240" enable-background="new 0 0 240 240" xml:space="preserve">
<circle fill="#8BC862" cx="120.142" cy="119.949" r="119.948"/>
<path fill="none" stroke="#000000" stroke-width="2.5" stroke-miterlimit="10" d="M60.911,77.067
	c0-14.981,12.136-27.12,27.112-27.12c14.972,0,27.111,12.139,27.111,27.12c0,14.982-12.139,27.124-27.111,27.124
	C73.047,104.19,60.911,92.049,60.911,77.067z"/>
<path d="M84.136,188.848c0,0-0.159-0.291-0.459-0.837c-0.282-0.562-0.802-1.313-1.156-2.448c-0.496-1.098-0.784-2.508-1.083-4.172
	c0.006-0.853,0.015-1.764,0.024-2.725c0.227-1.045,0.441-1.84,0.768-2.84c0.741-1.996,1.863-3.936,2.341-5.93l0.229-0.748
	l0.043-0.715c0.04-0.584,0.077-1.175,0.114-1.771c0.021-0.592-0.202-1.004-0.25-1.514c-0.068-0.48-0.147-0.979-0.409-1.516
	c-0.658-2.129-2.199-4.162-3.452-6.537c-0.688-1.156-1.232-2.477-1.74-3.838c-0.257-0.678-0.325-1.447-0.482-2.17l-0.204-1.162
	l-0.042-0.992c-0.093-1.244-0.034-2.772,0.202-4.281c0.191-0.715,0.373-1.45,0.598-2.141l0.827-1.916
	c0.661-1.357,1.266-2.32,1.958-3.471c0.704-1.092,1.393-2.172,2.074-3.232c1.275-2.103,2.475-3.994,3.042-6.023
	c0.453-1.846,0.076-3.928-0.496-5.727c-1.294-3.618-2.594-6.871-2.766-9.248c-0.147-1.177-0.052-2.117,0.037-2.736
	c0.098-0.616,0.147-0.944,0.147-0.944s0.009,0.334,0.024,0.95c0.006,0.619,0.122,1.525,0.392,2.626
	c0.27,1.102,0.735,2.399,1.441,3.831c0.689,1.438,1.599,3.009,2.377,4.914c0.759,1.903,1.48,4.178,1.067,6.851
	c-0.456,2.408-1.661,4.771-2.901,6.926c-0.615,1.058-1.244,2.131-1.878,3.215c-0.579,1.066-1.298,2.337-1.767,3.324l-0.709,1.698
	l-0.439,1.664c-0.147,1.103-0.208,2.229-0.104,3.63l0.03,0.991l0.154,0.793c0.127,0.563,0.137,1.142,0.347,1.696
	c0.41,1.117,0.836,2.236,1.476,3.34c1.145,2.24,2.637,4.454,3.404,7.12c0.261,0.608,0.374,1.325,0.447,2.06
	c0.064,0.7,0.218,1.479,0.14,2.075c-0.087,0.593-0.172,1.179-0.257,1.755c-0.06,0.359-0.044,0.43-0.166,1.014l-0.332,0.875
	c-0.41,1.192-0.92,2.215-1.456,3.158c-0.477,0.91-0.943,1.793-1.39,2.639c-0.382,0.848-0.698,1.896-0.967,2.582
	c-0.122,0.845-0.233,1.648-0.341,2.402c0.084,1.549,0.163,2.924,0.499,4.016c0.208,1.125,0.546,1.99,0.737,2.58
	C84.029,188.533,84.136,188.848,84.136,188.848z"/>
<path d="M108.586,102.264c0,0,0.35,0.298,1.014,0.861c0.331,0.282,0.738,0.625,1.219,1.035c0.5,0.37,1.11,0.738,1.756,1.188
	c0.689,0.361,1.444,0.82,2.356,1.019c0.855,0.312,1.982,0.22,3.151,0.915c0.659,0.297,0.931,0.796,1.507,1.353
	c0.324,0.505,0.656,1.021,0.996,1.555c0.752,0.998,1.194,2.377,1.788,3.708c0.949,2.705,1.835,5.654,2.169,8.904
	c0.464,3.128,0.585,6.642,0.964,9.929c0.36,1.582,0.545,3.34,1.133,4.808c0.289,0.926,0.704,1.471,1.051,2.104
	c0.478,0.598,0.92,1.246,1.55,1.766c2.347,2.146,5.927,3.758,9.026,5.699c3.172,1.949,6.396,3.896,9.311,6.295
	c2.869,2.398,5.63,5.064,7.338,8.399l0.689,1.195l0.459,1.304c0.297,0.874,0.617,1.704,0.847,2.594
	c0.297,1.646,0.586,3.25,0.868,4.814c0.516,3.16,1.229,6.014,1.815,8.699c0.147,0.67,0.296,1.328,0.441,1.97
	c0.092,0.539,0.435,1.2,0.61,1.776c0.446,1.183,0.799,2.352,1.35,3.285c0.936,1.979,1.956,3.646,2.838,4.996
	c0.844,1.375,1.613,2.392,2.088,3.119c0.488,0.715,0.751,1.098,0.751,1.098s-0.308-0.346-0.886-0.993
	c-0.551-0.668-1.482-1.556-2.448-2.867c-1.015-1.274-2.21-2.843-3.397-4.851c-0.68-0.965-1.129-2.069-1.682-3.205
	c-0.267-0.604-0.568-1.088-0.787-1.84c-0.186-0.645-0.373-1.307-0.563-1.977c-0.761-2.688-1.673-5.627-2.356-8.711
	c-0.373-1.544-0.759-3.13-1.148-4.749c-0.239-0.71-0.569-1.438-0.83-2.173l-0.413-1.104l-0.646-1.021
	c-1.522-2.855-4.156-5.166-6.828-7.398c-2.734-2.217-5.881-4.074-9.014-5.967l-4.755-2.82c-1.595-0.935-3.274-1.971-4.75-3.369
	c-0.765-0.661-1.376-1.502-1.981-2.338c-0.526-0.945-1.063-1.938-1.272-2.732c-0.667-1.872-0.788-3.686-1.136-5.479
	c-0.35-3.606-0.207-6.813-0.491-10c-0.125-3.101-0.829-6-1.56-8.56c-0.46-1.228-0.755-2.431-1.43-3.545
	c-0.29-0.564-0.575-1.112-0.846-1.644c-0.291-0.251-0.579-0.882-0.989-1.047c-0.717-0.585-1.847-0.662-2.79-1.077
	c-0.977-0.313-1.745-0.882-2.43-1.332c-1.342-1.007-2.184-1.949-2.757-2.604C108.896,102.605,108.586,102.264,108.586,102.264z"/>
<path d="M120.755,76.535c0,0,1.001-0.031,2.75-0.006c0.869-0.025,1.931,0.157,3.165,0.271c1.253,0.095,2.588,0.398,4.084,0.683
	c1.467,0.333,3.063,0.707,4.696,1.151c1.62,0.414,3.429,0.861,4.885,0.905c0.263-0.08,0.685,0.009,0.825-0.123l1.304-0.597
	l0.655-0.303l0.445-0.375l0.926-0.701c1.31-1.195,2.484-2.656,3.914-4.226c0.65-0.778,1.58-1.476,2.4-2.188
	c0.987-0.545,1.945-1.278,3.064-1.511c1.127-0.288,2.24-0.552,3.14-0.588c0.947-0.092,1.972-0.211,3.023-0.146
	c2.11,0.07,4.043,0.779,5.642,1.604c0.805,0.43,1.52,0.885,2.262,1.343c0.649,0.471,1.276,0.93,1.883,1.371
	c1.201,0.882,2.297,1.684,3.27,2.399c1.01,0.605,1.863,1.251,2.639,1.601c1.563,0.675,2.489,1.122,2.489,1.122
	s-0.967-0.165-2.717-0.555c-0.863-0.221-1.819-0.704-2.985-1.154c-1.123-0.512-2.334-1.167-3.646-1.888
	c-0.655-0.355-1.335-0.732-2.042-1.12c-0.673-0.301-1.398-0.692-2.134-0.999c-1.491-0.599-3.07-0.979-4.698-0.967
	c-1.509,0.03-3.791,0.435-5.179,0.851c-0.807,0.154-1.445,0.741-2.179,1.118c-0.647,0.61-1.335,1.097-1.96,1.857
	c-1.277,1.339-2.619,2.969-4.234,4.38c-0.924,0.622-1.98,1.54-2.838,1.752l-1.336,0.522c-0.709,0.321-1.287,0.196-1.933,0.269
	c-2.255-0.168-3.924-0.875-5.563-1.429c-1.601-0.588-3.112-1.145-4.51-1.658c-1.402-0.426-2.675-0.969-3.813-1.264
	c-1.15-0.316-2.139-0.68-3.012-0.809C121.729,76.78,120.755,76.535,120.755,76.535z"/>
<path d="M96.416,108.174c0,0,0.143,0.363,0.42,1.046c0.292,0.696,0.91,1.512,1.825,2.518c0.891,1.019,2.145,2.111,3.4,3.645
	c0.64,0.747,1.254,1.682,1.646,2.821c0.104,0.603,0.361,1.227,0.276,1.886c-0.055,0.575,0,1.105-0.154,1.754
	c-0.408,2.57-1.366,4.928-2.049,7.458c-0.374,1.255-0.567,2.521-0.591,3.749c0.021,0.453,0.111,1.376,0.199,1.982
	c0.184,0.578,0.226,1.15,0.526,1.753c0.899,2.435,2.92,4.456,5.22,6.261c2.413,1.842,5.061,4.157,6.88,6.967
	c0.45,0.758,0.855,1.313,1.328,2.237c0.3,0.765,0.672,1.31,0.911,2.258c0.588,1.804,0.722,3.507,0.637,5.216
	c-0.172,3.42-1.43,6.379-2.426,9.133c-1.026,2.754-2.078,5.313-2.491,7.813c-0.203,1.249-0.285,2.473-0.181,3.641
	c0.092,0.534,0.086,1.258,0.251,1.623c0.208,0.562,0.355,1.188,0.6,1.664c0.925,1.801,2.301,3.614,3.377,5.147
	c1.139,1.546,2.056,2.971,2.748,4.177c0.6,1.271,1.035,2.271,1.102,3.034c0.133,0.729,0.208,1.11,0.208,1.11
	s-0.132-0.369-0.373-1.063c-0.154-0.719-0.771-1.611-1.454-2.76c-0.806-1.094-1.839-2.362-3.136-3.766
	c-1.28-1.465-2.779-2.901-4.114-5.24c-0.318-0.551-0.483-1.1-0.733-1.666c-0.331-0.766-0.309-1.326-0.481-2.027
	c-0.21-1.344-0.213-2.757-0.083-4.179c0.279-2.858,1.207-5.679,2.162-8.441c0.93-2.763,1.884-5.58,2-8.354
	c0.067-1.368-0.108-2.805-0.494-3.973c-0.098-0.584-0.588-1.387-0.864-2.068c-0.251-0.461-0.75-1.196-1.103-1.782
	c-1.583-2.479-3.682-4.386-6.132-6.319c-2.514-1.982-4.859-4.529-5.94-7.688c-0.327-0.738-0.435-1.641-0.612-2.455
	c-0.08-0.819-0.104-1.33-0.089-2.281c0.132-1.602,0.491-3.063,0.973-4.365c0.911-2.603,2.01-4.947,2.482-7.01
	c0.178-0.486,0.172-1.126,0.263-1.664c0.111-0.466-0.098-0.913-0.091-1.372c-0.2-0.897-0.613-1.767-1.133-2.527
	c-1.003-1.549-2.142-2.803-2.938-3.94c-0.826-1.096-1.339-2.174-1.518-2.854C96.505,108.553,96.416,108.174,96.416,108.174z"/>
<path d="M121.1,83.838c0,0,1.316,0.285,3.61,0.781c2.252,0.636,5.562,1.639,9.168,3.47c1.832,0.869,3.755,1.907,5.792,2.83
	c2.075,0.879,4.08,1.522,6.307,1.22c2.229-0.283,4.537-1.266,7.025-2.202c2.471-0.913,5.283-1.946,8.477-1.635
	c1.517,0.155,3.224,0.952,4.265,1.559c1.317,0.821,2.502,1.752,3.456,2.773c2.009,2.026,3.383,4.325,4.81,6.328
	c1.413,2.021,2.789,3.869,4.451,5.19c1.673,1.371,3.448,2.103,5.433,2.645c1.816,0.465,3.676,0.818,5.264,1.192
	c1.609,0.383,3.005,0.784,4.111,1.224c1.112,0.429,1.928,0.888,2.459,1.243c0.533,0.325,0.819,0.5,0.819,0.5
	s-0.312-0.121-0.897-0.351c-0.568-0.266-1.446-0.522-2.564-0.809c-1.118-0.284-2.508-0.49-4.113-0.656
	c-1.632-0.153-3.432-0.238-5.537-0.64c-1.914-0.344-4.332-1.086-6.34-2.512c-2.068-1.396-3.804-3.357-5.313-5.397
	c-1.531-2.031-3.011-4.11-4.728-5.828c-0.857-0.898-1.807-1.577-2.736-2.178l-0.891-0.459l-0.443-0.227
	c0.037,0.037-0.213-0.067-0.303-0.091c-0.504-0.217-1.043-0.294-1.576-0.398c-2.193-0.263-4.627,0.477-7.057,1.365
	c-2.439,0.888-5.012,1.833-7.791,2.105c-2.833,0.324-5.561-0.827-7.589-1.921c-2.067-1.145-3.894-2.328-5.61-3.323
	c-1.714-1.029-3.313-1.878-4.725-2.679c-1.453-0.669-2.7-1.337-3.795-1.761C122.348,84.332,121.1,83.838,121.1,83.838z"/>
<path d="M118.841,70.513c0,0,0.661-0.38,1.843-0.966c0.605-0.271,1.282-0.692,2.197-0.937c0.887-0.269,1.936-0.674,3.061-0.885
	c2.229-0.514,4.92-0.777,7.557-1.267c1.368-0.156,2.598-0.664,3.893-1.023c1.18-0.578,2.435-1.066,3.391-2.023l0.796-0.604
	l0.334-0.251l0.377-0.413c0.554-0.566,0.913-1.077,1.274-1.575c0.756-1.12,1.629-2.491,2.873-3.615
	c1.234-1.187,2.803-1.654,4.135-2.016c1.339-0.33,2.56-0.463,3.75-0.526c1.164-0.092,2.248-0.031,3.188,0.098
	c0.944,0.133,1.766,0.282,2.4,0.539c1.302,0.421,1.849,1.042,1.871,0.972c-0.018,0.049-0.723-0.306-2.004-0.378
	c-0.621-0.1-1.412-0.051-2.287,0.033c-0.881,0.095-1.859,0.276-2.92,0.518c-1.028,0.234-2.207,0.575-3.33,0.984
	c-1.08,0.45-2.159,0.943-2.915,1.788c-0.806,0.808-1.392,1.988-2.267,3.314c-0.483,0.712-0.99,1.404-1.476,1.918l-0.366,0.422
	c-0.251,0.276-0.347,0.303-0.527,0.466l-0.973,0.786c-1.242,1.139-2.806,1.753-4.303,2.408c-1.521,0.435-3.09,0.827-4.521,0.903
	c-2.933,0.301-5.49,0.21-7.711,0.319c-1.103,0.046-2.057,0.174-2.969,0.223c-0.9,0.014-1.684,0.273-2.327,0.398
	C119.595,70.396,118.841,70.513,118.841,70.513z"/>
<path d="M72.775,108.174c0,0,0.087,0.773,0.163,2.126c0.03,1.387,0.385,3.185,0.739,5.468c0.183,1.124,0.379,2.389,0.545,3.714
	c0.091,1.372,0.272,2.815,0.045,4.401c-0.009,0.788-0.241,1.583-0.492,2.395l-0.367,1.218l-0.661,1.112l-0.692,1.11l-0.175,0.279
	l-0.269,0.295l-0.395,0.417c-0.472,0.551-1.176,1.127-1.825,1.686c-1.229,0.93-2.456,1.857-3.664,2.773
	c-1.072,0.917-2.257,1.764-2.834,2.739c-0.453,0.407-0.416,1.065-0.698,1.296c-0.077,0.689-0.153,1.361-0.226,2.021
	c-0.227,1.353-0.06,2.433-0.1,3.545c-0.036,1.084,0.178,2.141,0.215,3.061c0.052,0.93,0.181,1.73,0.306,2.389
	c0.214,1.326,0.3,2.108,0.3,2.108s-0.349-0.69-0.888-1.94c-0.274-0.629-0.591-1.396-0.859-2.312c-0.26-0.925-0.719-1.9-0.86-3.127
	c-0.177-1.183-0.539-2.58-0.453-3.866c-0.003-0.66-0.006-1.34-0.012-2.033c0.122-0.652,0.227-0.921,0.373-1.404
	c0.111-0.463,0.31-0.842,0.552-1.186l0.701-1.085l0.818-0.906c0.542-0.647,1.148-1.118,1.755-1.646c1.18-0.938,2.38-1.889,3.58-2.84
	c0.52-0.433,1.042-0.791,1.585-1.391l0.402-0.406c0.031-0.029,0.214-0.222,0.123-0.117l0.128-0.207l0.521-0.815l0.539-0.802
	l0.324-0.903c0.231-0.594,0.477-1.188,0.524-1.854c0.26-1.262,0.284-2.611,0.348-3.877c0-1.313-0.003-2.555-0.003-3.703
	c-0.018-1.153,0.043-2.237,0.148-3.207c0.066-0.96,0.146-1.781,0.292-2.438C72.588,108.93,72.775,108.174,72.775,108.174z"/>
<path d="M116.234,94.105c0,0,0.27,0.251,0.778,0.725c0.545,0.411,1.161,1.307,2.279,1.912c0.53,0.324,1.118,0.692,1.761,1.084
	c0.673,0.335,1.462,0.615,2.265,0.958c1.649,0.626,3.543,1.091,5.711,1.649c1.082,0.266,2.227,0.609,3.412,1.077
	c0.61,0.331,1.127,0.496,1.845,0.992c0.481,0.416,0.978,0.685,1.47,1.237c1.063,1.107,1.798,2.257,2.559,3.28
	c0.832,1.174,1.535,2.163,2.242,3.513c1.406,2.595,2.481,5.159,4.012,7.319c0.422,0.471,0.781,1.04,1.242,1.449
	c0.496,0.345,0.909,0.839,1.45,1.093c0.537,0.207,1.119,0.554,1.603,0.688l2.156,0.487c2.715,0.508,5.479,0.67,8.406,0.701
	c2.992,0.07,5.719,0.146,8.684,0.682c1.453,0.124,2.812,0.72,4.152,1.113c1.342,0.429,2.494,1.256,3.686,1.84
	c2.328,1.412,3.902,3.701,5.045,5.627c0.266,0.5,0.527,0.984,0.785,1.461l0.188,0.354c0.127,0.312,0.104,0.301,0.166,0.465
	l0.229,0.729c0.354,0.923,0.424,2.007,0.58,2.923c0.125,0.889,0.24,1.715,0.347,2.48c0.192,0.732,0.376,1.402,0.538,2.011
	c0.729,2.487,1.275,3.854,1.275,3.854s-0.176-0.32-0.51-0.928c-0.352-0.604-0.813-1.514-1.332-2.689
	c-0.244-0.616-0.52-1.299-0.818-2.041c-0.194-0.756-0.41-1.572-0.637-2.448c-0.257-0.827-0.363-1.677-0.845-2.604l-0.306-0.699
	c-0.031-0.08-0.146-0.334-0.104-0.269l-0.208-0.328c-0.279-0.438-0.563-0.885-0.852-1.341c-0.637-0.843-1.278-1.814-2.012-2.518
	c-0.346-0.389-0.692-0.782-1.24-1.135l-0.75-0.553c-0.078-0.055-0.35-0.275-0.275-0.189l-0.41-0.183
	c-2.146-1.081-4.533-1.866-7.119-2.208c-2.49-0.398-5.498-0.322-8.298-0.385c-2.87,0.012-6.022-0.114-9.093-0.676l-2.146-0.52
	c-0.931-0.26-1.635-0.688-2.44-1.053c-0.769-0.396-1.356-1.039-2.024-1.559c-0.613-0.577-1.052-1.256-1.572-1.88
	c-1.811-2.603-2.778-5.433-3.943-7.718c-0.505-1.131-1.357-2.384-1.975-3.438c-0.729-1.182-1.358-2.254-1.979-3.042
	c-0.297-0.441-0.885-0.851-1.302-1.267c-0.274-0.226-0.892-0.539-1.308-0.809c-0.996-0.477-2.037-0.88-3.08-1.217
	c-2.078-0.661-4.066-1.414-5.676-2.273c-0.807-0.458-1.574-0.84-2.24-1.275c-0.627-0.501-1.207-0.966-1.727-1.384
	c-0.552-0.38-0.925-0.815-1.213-1.229c-0.306-0.398-0.568-0.736-0.779-1.011C116.461,94.399,116.234,94.105,116.234,94.105z"/>
</svg>
