<?xml version="1.0" encoding="utf-8"?>
<!-- Generator: Adobe Illustrator 16.0.0, SVG Export Plug-In . SVG Version: 6.00 Build 0)  -->
<!DOCTYPE svg PUBLIC "-//W3C//DTD SVG 1.1//EN" "http://www.w3.org/Graphics/SVG/1.1/DTD/svg11.dtd">
<svg version="1.1" id="Layer_1" xmlns="http://www.w3.org/2000/svg" xmlns:xlink="http://www.w3.org/1999/xlink" x="0px" y="0px"
	 width="240px" height="240px" viewBox="0 0 240 240" enable-background="new 0 0 240 240" xml:space="preserve">
<circle fill="#8BC862" cx="119.873" cy="119.905" r="119.906"/>
<g>
	<g>
		<path d="M161.702,119.685c0,0-1.298-2.307-3.563-6.344c-1.109-2.031-2.466-4.497-4.107-7.262c-1.657-2.762-3.383-5.956-5.461-9.32
			c-2.118-3.337-4.195-7.096-6.786-10.8c-2.576-3.72-5.2-7.678-8.109-11.697c-2.872-4.01-5.938-8.06-9.391-11.825
			c-3.456-3.71-7.372-7.222-11.859-9.274c-2.23-1.049-4.606-1.526-6.947-1.478l-1.74,0.223l-0.22,0.024
			c0.046-0.018-0.251,0.062,0.07-0.037l-0.113,0.043l-0.459,0.177l-0.917,0.352l-0.917,0.354l-0.725,0.468l-1.45,0.917
			c-4.02,2.854-7.537,6.632-10.789,10.256c-3.251,3.67-6.188,7.421-8.944,10.997c-2.701,3.622-5.154,7.124-7.307,10.434
			c-2.132,3.319-4.041,6.396-5.638,9.18c-1.603,2.78-2.835,5.289-3.83,7.372c-0.856,2.129-1.649,3.775-1.939,4.98
			c-0.364,1.184-0.56,1.817-0.56,1.817s0.138-0.648,0.397-1.86c0.196-1.239,0.795-2.961,1.536-5.172
			c0.863-2.157,1.936-4.772,3.362-7.681c1.413-2.915,3.126-6.148,5.175-9.568c2.034-3.426,4.368-7.063,6.95-10.837
			c2.643-3.729,5.43-7.678,8.749-11.44c3.31-3.778,6.75-7.638,11.186-10.89c1.214-0.709,2.505-1.768,3.701-2.113l0.915-0.367
			l0.456-0.184l0.116-0.043c0.401-0.122,0.187-0.046,0.312-0.079l0.27-0.04l2.171-0.306c2.912-0.123,5.839,0.462,8.415,1.648
			c5.126,2.441,9.17,6.255,12.73,10.162c3.533,3.958,6.604,8.14,9.449,12.223c2.896,4.022,5.361,8.191,7.814,12.042
			c2.462,3.848,4.398,7.711,6.393,11.149c1.982,3.45,3.493,6.778,4.959,9.651c1.463,2.881,2.648,5.426,3.621,7.527
			C160.602,117.277,161.702,119.685,161.702,119.685z"/>
		<path d="M73.837,100.989c-0.312,0.609-0.627,1.218-0.966,1.805c-0.358,0.578-0.869,1.135-1.367,1.673
			c-0.56,0.471-1.168,0.939-1.796,1.248c-0.642,0.37-1.199,0.654-1.798,0.945c-1.138,0.599-2.199,1.278-3.255,2
			c-0.541,0.318-1.027,0.771-1.542,1.156l-1.554,1.15l0.388-0.447c-0.272,0.428-0.446,0.814-0.933,1.346
			c-0.055,0.088-0.288,0.303-0.603,0.48c-0.147,0.086-0.297,0.156-0.447,0.214c-0.208,0.067-0.621,0.089-0.945,0.009
			c-1.229-0.376-1.318-1.172-1.456-1.374c-0.257-0.676-0.291-1.074-0.379-1.536l-0.193-1.278c-0.251-1.637-0.392-3.224-0.847-4.665
			c-0.095-0.367-0.208-0.725-0.349-1.058l-0.248-0.643l-0.208-0.593c-0.159-0.346-0.227-0.912-0.309-1.395
			c-0.104-0.508-0.067-0.951-0.076-1.41c0.006-0.908,0.187-1.786,0.395-2.627c0.242-0.841,0.547-1.646,0.93-2.41
			c-0.03,1.71-0.027,3.377,0.324,4.894c0.095,0.37,0.156,0.771,0.306,1.064c0.134,0.324,0.199,0.593,0.44,0.988l0.3,0.554
			l0.291,0.49c0.251,0.407,0.462,0.823,0.648,1.242c0.716,1.701,1.125,3.432,1.401,5.093l0.22,1.199
			c0.067,0.355,0.174,0.789,0.229,0.887c-0.003,0.162,0.125-0.162-0.704-0.462c-0.223-0.074-0.526-0.009-0.639,0.034
			c-0.061,0.003-0.123,0.021-0.181,0.049c-0.131,0.073-0.189,0.174-0.125,0.083c0.095-0.073,0.318-0.431,0.502-0.704l0.22-0.333
			l0.168-0.113c1.153-0.786,2.249-1.622,3.497-2.276c0.627-0.324,1.239-0.67,1.875-0.97l1.985-0.74l1.921-0.563
			c0.642-0.146,1.147-0.425,1.731-0.651c0.275-0.135,0.514-0.327,0.78-0.493c0.25-0.189,0.554-0.309,0.801-0.554
			C72.776,101.849,73.305,101.417,73.837,100.989z"/>
	</g>
	<g>
		<path d="M98.231,85.343c0,0-1.349,2.276-3.71,6.259c-1.205,1.979-2.661,4.383-4.236,7.191c-1.563,2.814-3.466,5.907-5.341,9.388
			c-1.833,3.505-4.047,7.182-5.962,11.281c-1.933,4.089-4.047,8.341-6.075,12.869c-2.037,4.493-4.01,9.173-5.546,14.046
			c-1.486,4.852-2.569,9.996-2.101,14.908c0.205,2.457,0.979,4.754,2.193,6.754l1.064,1.398l0.129,0.174
			c-0.037-0.027,0.177,0.189-0.067-0.043l0.095,0.08l0.385,0.309l0.765,0.618l0.762,0.618l0.771,0.392l1.517,0.798
			c4.484,2.053,9.516,3.213,14.279,4.213c4.802,0.981,9.522,1.648,13.997,2.248c4.487,0.528,8.748,0.902,12.688,1.113
			c3.943,0.188,7.561,0.3,10.77,0.29c3.213-0.003,6-0.188,8.3-0.367c2.272-0.327,4.096-0.462,5.282-0.815
			c1.209-0.275,1.854-0.422,1.854-0.422s-0.631,0.205-1.813,0.586c-1.168,0.451-2.961,0.793-5.246,1.254
			c-2.297,0.334-5.098,0.713-8.332,0.932c-3.229,0.234-6.887,0.365-10.874,0.307c-3.985-0.05-8.302-0.252-12.859-0.604
			c-4.551-0.422-9.369-0.863-14.285-1.854c-4.925-0.979-9.99-2.029-15.025-4.244c-1.217-0.696-2.784-1.283-3.68-2.149l-0.774-0.604
			l-0.389-0.307l-0.098-0.076c-0.306-0.285-0.132-0.138-0.224-0.229l-0.168-0.215l-1.352-1.726c-1.563-2.463-2.521-5.292-2.78-8.114
			c-0.45-5.662,0.835-11.07,2.438-16.104c1.661-5.041,3.747-9.792,5.861-14.297c2.031-4.521,4.411-8.739,6.521-12.79
			c2.102-4.056,4.478-7.666,6.46-11.113c1.994-3.441,4.123-6.414,5.879-9.121c1.762-2.704,3.374-5.007,4.708-6.901
			C96.696,87.5,98.231,85.343,98.231,85.343z"/>
		<path d="M125.973,170.785c0.686-0.033,1.369-0.067,2.047-0.067c0.679,0.021,1.416,0.187,2.131,0.349
			c0.688,0.248,1.4,0.543,1.982,0.932c0.639,0.373,1.165,0.709,1.717,1.085c1.088,0.687,2.207,1.267,3.357,1.819
			c0.551,0.311,1.184,0.509,1.773,0.76l1.773,0.771l-0.581-0.113c0.505,0.021,0.925-0.019,1.632,0.135
			c0.104,0.003,0.399,0.095,0.715,0.277c0.145,0.084,0.281,0.179,0.406,0.278c0.159,0.138,0.389,0.486,0.483,0.808
			c0.3,1.262-0.353,1.734-0.456,1.959c-0.458,0.56-0.786,0.789-1.141,1.098l-1.01,0.805c-1.291,1.037-2.598,1.951-3.619,3.068
			c-0.27,0.266-0.522,0.541-0.74,0.829l-0.432,0.538l-0.408,0.474c-0.225,0.313-0.678,0.655-1.057,0.968
			c-0.389,0.342-0.789,0.534-1.181,0.773c-0.792,0.445-1.644,0.729-2.476,0.973c-0.851,0.208-1.697,0.346-2.554,0.396
			c1.498-0.823,2.938-1.661,4.077-2.726c0.275-0.268,0.59-0.521,0.768-0.796c0.215-0.278,0.416-0.472,0.641-0.878l0.326-0.535
			l0.278-0.496c0.228-0.422,0.48-0.813,0.753-1.184c1.109-1.473,2.406-2.691,3.707-3.764l0.928-0.788
			c0.274-0.235,0.6-0.544,0.653-0.644c0.142-0.076-0.208-0.023-0.049,0.848c0.052,0.229,0.263,0.463,0.353,0.533
			c0.033,0.051,0.08,0.098,0.131,0.131c0.133,0.076,0.244,0.076,0.136,0.063c-0.113-0.042-0.536-0.058-0.863-0.079l-0.399-0.023
			l-0.185-0.09c-1.254-0.604-2.526-1.138-3.72-1.894c-0.594-0.382-1.199-0.739-1.777-1.142l-1.63-1.348l-1.45-1.384
			c-0.445-0.483-0.94-0.78-1.432-1.172c-0.254-0.171-0.538-0.281-0.813-0.433c-0.291-0.118-0.545-0.323-0.881-0.416
			C127.247,171.273,126.607,171.029,125.973,170.785z"/>
	</g>
	<g>
		<g>
			<path d="M100.642,155.507c0,0,2.646,0.03,7.277,0.085c2.313,0.053,5.124,0.113,8.345,0.074c3.218-0.057,6.845,0.045,10.8-0.066
				c3.949-0.17,8.244-0.09,12.75-0.479c4.509-0.373,9.246-0.664,14.181-1.176c4.912-0.482,9.95-1.112,14.937-2.221
				c4.945-1.141,9.943-2.773,13.963-5.634c2.025-1.407,3.629-3.228,4.752-5.28l0.679-1.617l0.089-0.201
				c-0.007,0.049,0.072-0.248-0.003,0.078l0.019-0.121l0.076-0.483l0.152-0.973l0.152-0.97l-0.043-0.862l-0.069-1.713
				c-0.462-4.913-1.976-9.847-3.49-14.475c-1.551-4.649-3.334-9.07-5.05-13.245c-1.786-4.151-3.592-8.026-5.381-11.544
				c-1.812-3.508-3.521-6.699-5.131-9.473c-1.607-2.78-3.164-5.099-4.469-7.005c-1.419-1.805-2.447-3.315-3.347-4.166
				c-0.845-0.908-1.293-1.395-1.293-1.395s0.491,0.444,1.413,1.273c0.973,0.792,2.165,2.171,3.71,3.918
				c1.438,1.826,3.166,4.063,4.971,6.754c1.817,2.68,3.761,5.778,5.698,9.262c1.952,3.478,3.934,7.317,5.91,11.44
				c1.91,4.154,3.937,8.543,5.535,13.297c1.613,4.753,3.236,9.666,3.836,15.132c0.007,1.403,0.279,3.053-0.021,4.264l-0.138,0.974
				l-0.07,0.489l-0.02,0.119c-0.092,0.41-0.055,0.188-0.088,0.313l-0.099,0.254l-0.819,2.031c-1.353,2.585-3.318,4.83-5.635,6.466
				c-4.68,3.222-10.005,4.812-15.168,5.943c-5.193,1.083-10.352,1.651-15.31,2.073c-4.933,0.502-9.776,0.552-14.337,0.746
				c-4.567,0.209-8.877-0.045-12.854-0.039c-3.979-0.01-7.617-0.363-10.84-0.528c-3.224-0.175-6.023-0.419-8.33-0.627
				C103.275,155.757,100.642,155.507,100.642,155.507z"/>
		</g>
		<path d="M160.764,88.763c-0.371-0.575-0.74-1.153-1.08-1.74c-0.32-0.6-0.547-1.318-0.765-2.019
			c-0.129-0.719-0.229-1.483-0.185-2.181c0.004-0.74,0.033-1.364,0.082-2.028c0.047-1.288-0.008-2.545-0.104-3.82
			c-0.01-0.627-0.152-1.276-0.232-1.912l-0.217-1.921l0.188,0.56c-0.231-0.45-0.478-0.795-0.697-1.484
			c-0.049-0.091-0.119-0.395-0.116-0.758c0-0.165,0.014-0.333,0.037-0.493c0.043-0.205,0.229-0.578,0.459-0.82
			c0.938-0.887,1.676-0.563,1.922-0.584c0.715,0.116,1.075,0.284,1.522,0.44l1.202,0.471c1.544,0.6,2.99,1.269,4.466,1.594
			c0.366,0.104,0.729,0.183,1.089,0.226l0.682,0.107l0.619,0.116c0.383,0.037,0.904,0.263,1.363,0.435
			c0.492,0.162,0.855,0.416,1.26,0.636c0.783,0.462,1.45,1.058,2.077,1.658c0.604,0.63,1.149,1.297,1.621,2.013
			c-1.465-0.884-2.908-1.716-4.401-2.168c-0.367-0.104-0.742-0.251-1.072-0.269c-0.35-0.043-0.612-0.125-1.077-0.117l-0.628-0.015
			l-0.568,0.006c-0.477,0.018-0.941-0.009-1.4-0.058c-1.828-0.227-3.535-0.737-5.113-1.328l-1.146-0.407
			c-0.343-0.12-0.772-0.245-0.884-0.248c-0.141-0.083,0.083,0.193,0.759-0.382c0.171-0.156,0.267-0.456,0.281-0.566
			c0.026-0.055,0.046-0.116,0.049-0.18c0-0.15-0.055-0.248-0.009-0.147c0.018,0.119,0.214,0.493,0.359,0.786l0.179,0.358
			l0.016,0.202c0.101,1.392,0.278,2.756,0.22,4.167c-0.033,0.707-0.039,1.41-0.098,2.11l-0.352,2.086l-0.475,1.946
			c-0.193,0.63-0.203,1.208-0.301,1.826c-0.021,0.306,0.027,0.608,0.037,0.92c0.04,0.315-0.01,0.633,0.076,0.97
			C160.552,87.414,160.659,88.087,160.764,88.763z"/>
	</g>
</g>
</svg>
